# xmcd
#
# Track frame offsets:
#	150
#	17182
#	35292
#	56410
#	75782
#	86917
#	99390
#	118572
#	132812
#	147820
#	162265
#	183640
#	202232
#	212427
#	227880
#	245770
#	261637
#
# Disc length: 3713 seconds
#
# Revision: 7
# Processed by: cddbd v1.4PL0 Copyright (c) Steve Scherf et al.
# Submitted via: dBpowerAMP V4.0
#
DISCID=ed0e7f11
DTITLE=Μάριος Φραγκούλης - Φεγγάρι Ερωτευμένο
DYEAR=1999
DGENRE=Other
TTITLE0=Granada
TTITLE1=Con Te Partiro
TTITLE2=Το Δωμάτιο
TTITLE3=Spente Le Stelle
TTITLE4=Μια Πόλη Μαγική
TTITLE5=Τ' Αστέρι Του Βοριά
TTITLE6=Ο Κεμάλ
TTITLE7=Την Εικόνα Σου
TTITLE8=Όμορφη Πόλη
TTITLE9=Ανοίγω Το Στόμα Μου
TTITLE10=Δρόμοι Παλιοί
TTITLE11=Σ' Ακολουθώ
TTITLE12=Φάτα Μοργκάνα
TTITLE13=Βόσπορος
TTITLE14=Μικρή Πατρίδα
TTITLE15=Σελίδα Λευκή
TTITLE16=Τον Εαυτό Του Παιδί
EXTD=
EXTT0=
EXTT1=
EXTT2=
EXTT3=
EXTT4=
EXTT5=
EXTT6=
EXTT7=
EXTT8=
EXTT9=
EXTT10=
EXTT11=
EXTT12=
EXTT13=
EXTT14=
EXTT15=
EXTT16=
PLAYORDER=
